<svg width="60" height="57" viewBox="0 0 91 88" fill="none" xmlns="http://www.w3.org/2000/svg">
<path d="M45.7769 0C40.3316 0 35.9939 4.39085 35.9939 9.69647C35.9939 15.0936 40.4239 19.3929 45.7769 19.3929C51.2221 19.3929 55.5598 15.0021 55.5598 9.69647C55.5598 4.39085 51.2221 0 45.7769 0ZM13.4746 22.5031C11.7211 22.5031 9.96754 22.5946 8.39858 23.052C7.29107 23.3264 6.27586 23.7838 5.62982 24.4241C4.79919 25.3389 4.7069 26.4366 5.07606 27.4428C5.44523 28.3576 6.46045 28.9979 7.56795 29.3638C9.96754 30.1871 12.644 30.3701 15.1359 30.8274C15.5974 30.9189 16.1511 31.1019 16.428 31.3763C16.7049 31.7422 16.5203 32.2911 16.0588 32.474C15.2282 32.9314 14.213 32.9314 13.1978 32.8399C12.3671 32.8399 11.3519 32.7484 10.7059 32.2911C10.1521 32.0166 10.1521 31.4678 10.2444 31.0104H4.6146C4.6146 31.8337 4.79919 32.7484 5.35294 33.4802C5.90669 34.1206 6.73732 34.578 7.66024 34.7609C9.13692 35.2183 10.7059 35.3098 12.2748 35.3098C14.3976 35.3098 16.5203 35.3098 18.5507 34.8524C19.7505 34.578 20.9503 34.1206 21.6886 33.2973C23.073 31.9252 22.7039 29.7297 20.9503 28.7235C20.0274 28.1746 18.9199 27.9002 17.8124 27.6258C16.1511 27.2599 14.5821 27.0769 12.9209 26.8025C12.3671 26.711 11.7211 26.6195 11.2596 26.3451C10.7982 26.0707 10.7059 25.4304 11.2596 25.1559C11.9057 24.79 12.8286 24.79 13.6592 24.79C14.4899 24.79 15.4128 24.8815 16.1511 25.2474C16.5203 25.4304 16.7049 25.7963 16.7049 26.1622H22.0578C22.0578 25.5218 21.8732 24.79 21.4118 24.2412C20.858 23.5094 19.8428 23.052 18.8276 22.7775C16.8895 22.5946 15.1359 22.5031 13.4746 22.5031ZM25.0112 22.869V35.4927H40.6085V32.7484H30.7333V30.2786H39.501V27.6258H30.7333V25.6133H40.2393V22.869H25.0112ZM50.7606 22.869C50.7606 22.869 45.9615 22.869 43.5619 22.869V35.4927H49.0071V26.9854L56.4828 35.4927H63.9584V22.869H58.5132V31.2848L50.7606 22.869ZM73.7414 22.869C73.7414 22.869 67.8347 31.2848 64.8813 35.4927H70.6034L71.9878 33.2058H80.8479L82.14 35.4927H88.5081L80.1095 22.869H73.7414ZM76.6024 25.8877L79.3712 30.4615H73.7414L76.6024 25.8877ZM0 39.1518L0.0922921 46.0125L26.1187 45.921C27.4107 46.1954 28.2414 47.0187 27.9645 49.0312L11.9057 76.7484L17.074 81.5967L41.8083 39.1518H0ZM49.5608 39.1518L73.926 81.4137L79.2789 76.657L63.1278 48.9397C62.8509 47.0187 63.5892 46.104 64.9736 45.8295L91 45.921V39.1518H49.5608ZM45.5 46.1954L22.6116 84.9813L28.7028 87.9085L43.931 62.3867C44.4848 61.9293 44.9462 61.7464 45.5 61.7464C46.0537 61.7464 46.6075 61.9293 47.1613 62.3867L62.3895 88L68.6653 84.7983L45.5 46.1954Z" fill="#ffffff"/>
</svg>
